<?xml version="1.0" encoding="UTF-8"?>
<svg version="1.1" xmlns="http://www.w3.org/2000/svg" width="512" height="512">
<path d="M0 0 C15.95493039 12.33657186 24.89988648 29.94259136 27.49267578 49.77392578 C29.56118637 70.1781228 24.81966926 92.54011961 15.80908203 110.89501953 C16.13908203 111.22501953 16.46908203 111.55501953 16.80908203 111.89501953 C17.25896484 111.31236328 17.70884766 110.72970703 18.17236328 110.12939453 C35.16120501 88.47628162 55.69073955 69.4758251 84.05126953 65.17626953 C98.90059682 63.66189054 113.62684667 65.67861697 126.80908203 72.89501953 C127.64826172 73.34876953 128.48744141 73.80251953 129.35205078 74.27001953 C152.81652467 87.65750231 168.62556383 110.0831056 175.80908203 135.89501953 C180.89163862 155.70025754 179.08856931 177.14063981 169.43798828 195.18408203 C156.32222719 217.01223118 134.28268395 228.76551623 110.20751953 234.79736328 C102.46500322 236.52269119 94.66150197 237.78628914 86.80908203 238.89501953 C88.07880859 239.06517578 89.34853516 239.23533203 90.65673828 239.41064453 C111.37698417 242.28137573 131.80241974 246.99830062 148.80908203 259.89501953 C149.48970703 260.36423828 150.17033203 260.83345703 150.87158203 261.31689453 C165.65295517 271.73104379 174.4382545 288.42741707 177.80908203 305.89501953 C178.22168188 310.13489555 178.28718447 314.32469843 178.24658203 318.58251953 C178.23828369 319.71737793 178.22998535 320.85223633 178.22143555 322.02148438 C177.72063327 347.13288688 167.14986425 368.14426584 150.80908203 386.89501953 C150.25736328 387.53181641 149.70564453 388.16861328 149.13720703 388.82470703 C136.95589266 401.91057445 117.78351304 412.10348495 99.80908203 412.89501953 C98.86935547 412.94658203 97.92962891 412.99814453 96.96142578 413.05126953 C72.16683026 413.7743197 51.42580997 402.51032038 33.80908203 385.89501953 C27.23250787 379.36325023 21.15759974 372.47208629 15.80908203 364.89501953 C16.20095703 366.07064453 16.59283203 367.24626953 16.99658203 368.45751953 C17.26857422 369.28123047 17.54056641 370.10494141 17.82080078 370.95361328 C18.53425111 373.07704449 19.26867101 375.19346995 20.01611328 377.30517578 C24.15645558 389.20084201 27.11986411 401.25935764 27.80908203 413.89501953 C27.86193359 414.70583984 27.91478516 415.51666016 27.96923828 416.35205078 C28.66557651 436.54585928 21.5797709 454.86976198 8.49658203 470.14501953 C-5.16179407 484.6742317 -26.291441 493.88644851 -46.15673828 495.07202148 C-75.82698988 495.65620984 -100.7428625 491.2014676 -123.12841797 470.45751953 C-137.94787158 454.51820796 -143.08689467 433.27147731 -142.31835938 412.09667969 C-141.52680317 398.42186383 -137.52766375 385.80000981 -132.89941406 372.99121094 C-132.21801125 370.97517904 -131.67606517 368.96611233 -131.19091797 366.89501953 C-131.73619141 367.58466797 -132.28146484 368.27431641 -132.84326172 368.98486328 C-137.95777479 375.35833341 -143.32094491 381.2178558 -149.19091797 386.89501953 C-149.99400391 387.71615234 -150.79708984 388.53728516 -151.62451172 389.38330078 C-167.93881549 405.34996338 -188.56291934 413.61572525 -211.22607422 413.43188477 C-232.83233365 412.74228724 -250.40753289 402.11305415 -265.19091797 386.89501953 C-265.95017578 386.13318359 -266.70943359 385.37134766 -267.49169922 384.58642578 C-286.0850503 364.90996687 -293.23197404 339.08656829 -292.50341797 312.67236328 C-291.64850214 293.64132622 -282.92634355 277.92050216 -269.33544922 264.79736328 C-250.52605938 248.11216683 -224.82835637 240.8832432 -200.19091797 239.89501953 C-200.19091797 239.23501953 -200.19091797 238.57501953 -200.19091797 237.89501953 C-200.95791016 237.88083984 -201.72490234 237.86666016 -202.51513672 237.85205078 C-231.28690558 236.6156333 -257.57883144 225.77224649 -277.25732422 204.68017578 C-291.57918628 187.47471734 -293.69225674 167.49800968 -292.19091797 145.89501953 C-289.27583032 120.64550199 -274.36994032 97.42803724 -255.06591797 81.45751953 C-238.40310353 68.86783751 -219.25198092 62.81908242 -198.37060547 65.35986328 C-172.1361758 69.36528999 -150.58388985 86.34409887 -134.80029297 107.02783203 C-132.89756216 109.62911786 -131.02562045 112.24546315 -129.19091797 114.89501953 C-129.41231445 114.32283691 -129.63371094 113.7506543 -129.86181641 113.16113281 C-140.17605897 86.28077849 -147.96235927 57.48015533 -136.87841797 29.52001953 C-127.6847647 9.33217555 -112.61134813 -3.83408222 -92.19091797 -12.10498047 C-61.7982004 -22.60363584 -26.12524107 -19.25745283 0 0 Z M13.80908203 113.89501953 C14.80908203 115.89501953 14.80908203 115.89501953 14.80908203 115.89501953 Z M13.80908203 361.89501953 C14.80908203 363.89501953 14.80908203 363.89501953 14.80908203 363.89501953 Z " fill="#FF718A" transform="translate(313.19091796875,17.10498046875)"/>
<path d="M0 0 C3.91019399 0.02096953 7.8204171 0.02969943 11.73065186 0.03967285 C19.31601312 0.060717 26.90123792 0.09455145 34.48651123 0.1373291 C34.62091614 1.03212479 34.75532104 1.92692047 34.89379883 2.84883118 C35.16060455 4.60775948 35.16060455 4.60775948 35.43280029 6.40222168 C35.6084552 7.56514236 35.78411011 8.72806305 35.96508789 9.92622375 C38.53322637 25.74170912 46.3213247 39.34451993 59.13104248 49.16467285 C61.21696412 50.56076213 63.30869973 51.89061092 65.48651123 53.1373291 C64.20057408 56.5306599 62.73234706 59.62225359 60.89666748 62.75061035 C60.36887695 63.65335693 59.84108643 64.55610352 59.29730225 65.48620605 C58.43189819 66.95319946 58.43189819 66.95319946 57.54901123 68.4498291 C56.64203491 69.99513306 56.64203491 69.99513306 55.71673584 71.57165527 C54.01893164 74.46002793 52.31729574 77.3460624 50.61297607 80.23059082 C49.4346555 82.22510397 48.25742293 84.2202568 47.08026123 86.2154541 C44.98723394 89.76172194 42.89116228 93.30617543 40.7928772 96.84933472 C39.97385807 98.23239777 39.1552638 99.61571252 38.33712769 100.9992981 C28.16470159 118.19264977 18.02303802 134.26044303 3.48651123 148.1373291 C2.67440186 148.96619629 1.86229248 149.79506348 1.02557373 150.64904785 C-15.26340606 166.61224805 -35.91385106 174.85780476 -58.54864502 174.67419434 C-80.15490445 173.98459681 -97.73010369 163.35536372 -112.51348877 148.1373291 C-113.27274658 147.37549316 -114.03200439 146.61365723 -114.81427002 145.82873535 C-133.40762111 126.15227644 -140.55454484 100.32887786 -139.82598877 73.91467285 C-138.97107294 54.88363579 -130.24891435 39.16281173 -116.65802002 26.03967285 C-98.48499111 9.91897144 -73.2691167 2.41762281 -49.43927002 0.9576416 C-47.58752922 0.83765305 -47.58752922 0.83765305 -45.69837952 0.71524048 C-30.47461306 -0.17237002 -15.24363664 -0.09086994 0 0 Z " fill="#FF3F62" transform="translate(160.51348876953125,255.8626708984375)"/>
<path d="M0 0 C16.64139692 -0.0476751 33.27952165 0.02918138 49.91943359 0.26245117 C52.48024043 0.29590977 55.04112475 0.32387447 57.60205078 0.34643555 C87.8897814 0.61799666 119.92248006 2.98288071 145 22 C145.680625 22.46921875 146.36125 22.9384375 147.0625 23.421875 C161.84387314 33.83602426 170.62917246 50.53239754 174 68 C174.41259985 72.23987602 174.47810244 76.4296789 174.4375 80.6875 C174.42920166 81.8223584 174.42090332 82.9572168 174.41235352 84.12646484 C173.91155124 109.23786735 163.34078222 130.2492463 147 149 C146.17242187 149.95519531 146.17242187 149.95519531 145.328125 150.9296875 C133.14681063 164.01555492 113.97443101 174.20846542 96 175 C95.06027344 175.0515625 94.12054688 175.103125 93.15234375 175.15625 C68.32949925 175.88012396 47.65265282 164.59624033 30 148 C20.08159477 138.24939861 11.90578137 127.67774849 5.11987305 115.51025391 C2.72962838 111.2298492 0.19515453 107.07250235 -2.4375 102.9375 C-8.19112106 93.87386278 -13.55495937 84.57882342 -18.93530273 75.29077148 C-19.63876938 74.08033922 -20.34261878 72.8701293 -21.046875 71.66015625 C-21.38413101 71.07884445 -21.72138702 70.49753265 -22.06886292 69.89860535 C-24.52966668 65.69660907 -27.19616576 61.69289922 -30.07519531 57.76733398 C-30.38038086 57.18411377 -30.68556641 56.60089355 -31 56 C-29.80823498 52.42470494 -29.00634913 52.13942422 -25.875 50.25 C-13.35183036 42.17245635 -4.56286318 28.77345722 -1.3359375 14.19140625 C-0.61477577 9.48708377 -0.31638594 4.74533324 0 0 Z " fill="#FF3F62" transform="translate(317,255)"/>
<path d="M0 0 C15.95493039 12.33657186 24.89988648 29.94259136 27.49267578 49.77392578 C30.97899399 84.16365729 15.17046891 114.89648385 -1.38574219 143.74462891 C-3.72601307 147.82886686 -6.0390218 151.92820008 -8.35131836 156.02832031 C-9.96185983 158.88383629 -11.57587279 161.73736136 -13.19091797 164.59033203 C-17.20479644 171.68409033 -21.19939513 178.78866492 -25.19091797 185.89501953 C-30.2441492 184.245701 -35.24366362 182.54031214 -40.17138672 180.54345703 C-54.74478372 175.86418449 -72.01453991 178.55602147 -85.44873047 185.12548828 C-87.19091797 185.89501953 -87.19091797 185.89501953 -89.19091797 185.89501953 C-91.21264702 182.29135467 -93.23321869 178.68704219 -95.25341797 175.08251953 C-95.87958008 173.96554688 -96.50574219 172.84857422 -97.15087891 171.69775391 C-100.48486588 165.74682367 -103.80780036 159.79005082 -107.10888672 153.82080078 C-107.74415283 152.67305176 -108.37941895 151.52530273 -109.03393555 150.34277344 C-110.30761594 148.04000624 -111.57958298 145.73629055 -112.84985352 143.43164062 C-115.89269301 137.93405004 -119.00433461 132.51710288 -122.3359375 127.19018555 C-137.98545196 101.96396344 -146.64394416 69.02368559 -140.16748047 39.65283203 C-135.36763843 21.18303986 -124.41993298 5.9598383 -108.19091797 -4.10498047 C-75.20098378 -23.34540068 -31.13905179 -22.95323589 0 0 Z " fill="#FF3F62" transform="translate(313.19091796875,17.10498046875)"/>
<path d="M0 0 C23.37197569 19.26707252 37.1590755 44.16172077 51.4987793 70.28442383 C57.39423282 81.0192185 63.43293079 91.66820707 69.55859375 102.2734375 C68.84316406 102.84191406 68.12773437 103.41039062 67.390625 103.99609375 C52.61410899 115.87845076 42.81452671 128.85857155 40.45703125 148.125 C40.36897217 148.81505127 40.28091309 149.50510254 40.19018555 150.21606445 C39.97569389 151.90135606 39.76658687 153.58733153 39.55859375 155.2734375 C38.35067924 155.2888987 38.35067924 155.2888987 37.11836243 155.30467224 C29.42830687 155.40375581 21.73831008 155.50639904 14.04835224 155.61277676 C10.09744233 155.66731252 6.14652482 155.72059935 2.19555664 155.77075195 C-15.03291099 155.99032636 -32.23729505 156.25229187 -49.44140625 157.2734375 C-49.44140625 156.9434375 -49.44140625 156.6134375 -49.44140625 156.2734375 C-47.13140625 156.2734375 -44.82140625 156.2734375 -42.44140625 156.2734375 C-42.44140625 155.6134375 -42.44140625 154.9534375 -42.44140625 154.2734375 C-43.20839844 154.25925781 -43.97539063 154.24507812 -44.765625 154.23046875 C-73.53739386 152.99405127 -99.82931973 142.15066445 -119.5078125 121.05859375 C-133.82967456 103.8531353 -135.94274502 83.87642765 -134.44140625 62.2734375 C-131.5263186 37.02391996 -116.6204286 13.80645521 -97.31640625 -2.1640625 C-67.13906297 -24.96472187 -29.2799463 -23.51770459 0 0 Z " fill="#FF718A" transform="translate(155.44140625,100.7265625)"/>
<path d="M0 0 C0.78310547 0.27263672 0.78310547 0.27263672 1.58203125 0.55078125 C3.16365798 1.09091647 4.75016907 1.6168439 6.33984375 2.1328125 C8.02876299 2.68338529 9.70994267 3.25879684 11.37890625 3.8671875 C17.50399445 5.88012728 23.29210829 6.2859503 29.6875 6.3125 C30.88125244 6.32059692 30.88125244 6.32059692 32.09912109 6.32885742 C40.57303918 6.22762113 47.69238271 3.85974893 55.484375 0.609375 C58 0 58 0 59.94702148 0.63549805 C62.6661402 2.44274677 63.73507064 4.39608262 65.36328125 7.22265625 C65.99564697 8.30675781 66.6280127 9.39085937 67.27954102 10.5078125 C67.9572239 11.69269124 68.63487615 12.8775875 69.3125 14.0625 C70.01824299 15.27804526 70.7252097 16.4928808 71.43334961 17.70703125 C72.89735846 20.21812241 74.35715496 22.7315912 75.81445312 25.24658203 C79.17417339 31.03133689 82.61779203 36.7655255 86.0625 42.5 C86.65651611 43.49394775 87.25053223 44.48789551 87.86254883 45.51196289 C90.73991536 50.31162242 93.67680183 55.04974901 96.73828125 59.734375 C99.46662921 64.00172275 101.44337128 67.97699392 103.125 72.75 C103.36452393 73.42409912 103.60404785 74.09819824 103.85083008 74.79272461 C104.34054126 76.18032052 104.82378625 77.57021672 105.30029297 78.96240234 C105.9746214 80.92609568 106.67386754 82.87918994 107.37890625 84.83203125 C111.49072839 96.55379288 114.32151894 108.56118059 115 121 C115.07927734 122.21623047 115.07927734 122.21623047 115.16015625 123.45703125 C115.85649447 143.65083975 108.77068887 161.97474245 95.6875 177.25 C82.02912389 191.77921217 60.89947697 200.99142898 41.03417969 202.17700195 C11.36392809 202.76119031 -13.55194453 198.30644807 -35.9375 177.5625 C-50.75695361 161.62318843 -55.8959767 140.37645778 -55.12744141 119.20166016 C-53.85349954 97.19321622 -45.42071315 75.9409825 -34.4375 57.0625 C-33.91647705 56.15918945 -33.3954541 55.25587891 -32.85864258 54.32519531 C-27.89984707 45.75966428 -22.81060265 37.27391264 -17.69042969 28.80419922 C-15.76782873 25.61485858 -13.85577059 22.41927717 -11.9453125 19.22265625 C-10.90848051 17.4890976 -9.87155444 15.75559524 -8.83462524 14.02209473 C-7.826062 12.33518365 -6.81866263 10.64757689 -5.8112793 8.95996094 C-4.89342651 7.42710449 -4.89342651 7.42710449 -3.95703125 5.86328125 C-3.41022705 4.94844971 -2.86342285 4.03361816 -2.30004883 3.09106445 C-1 1 -1 1 0 0 Z " fill="#FF718A" transform="translate(226,310)"/>
<path d="M0 0 C1.14662109 -0.01836914 1.14662109 -0.01836914 2.31640625 -0.03710938 C18.1484968 -0.07742879 32.26859133 7.09548375 43.75 17.5859375 C56.76161702 30.79590234 61.56319408 46.0678931 61.48852539 64.22827148 C61.15006289 81.37854224 53.30253752 95.36936897 41.125 107.1875 C27.21807224 119.54619557 10.57879836 123.06867475 -7.49658203 122.36230469 C-23.50314248 121.18588329 -37.12776989 111.87613604 -47.6171875 100.2578125 C-59.11335649 85.90249267 -62.50312566 69.13144158 -60.875 51.1875 C-58.18299304 35.1476252 -49.24450305 21.25999168 -36.26635742 11.54370117 C-25.02651417 3.54055828 -13.6405022 0.01138606 0 0 Z " fill="#FFEA98" transform="translate(255.875,194.8125)"/>
<path d="M0 0 C0.78117187 -0.00386719 1.56234375 -0.00773438 2.3671875 -0.01171875 C6.68992831 -0.00444141 10.74356845 0.26552825 15 1.125 C13.53272804 4.05954393 11.53086855 4.22694373 8.5 5.375 C-5.45491643 11.01000189 -13.99980549 19.65141429 -22 32.125 C-22.44859375 32.81722656 -22.8971875 33.50945312 -23.359375 34.22265625 C-30.77023681 47.19166441 -30.50671153 64.29744244 -26.83447266 78.31298828 C-22.64650805 92.87752457 -13.21425917 105.59365883 0 113.125 C3.61512366 114.92775448 7.28556213 116.54072698 11 118.125 C12.33869833 118.78082696 13.67414891 119.44357421 15 120.125 C15 120.455 15 120.785 15 121.125 C-1.86488331 124.44932796 -18.50087093 122.26895654 -33.1796875 113.109375 C-46.915796 103.44463384 -56.89023941 90.19946005 -60.52734375 73.58203125 C-63.1307116 54.54086972 -59.70113748 38.01555255 -48.00390625 22.47265625 C-35.66600403 7.78036535 -19.08237286 -0.09446719 0 0 Z " fill="#FFD945" transform="translate(256,194.875)"/>
<path d="M0 0 C2.4375 1 2.4375 1 4 3 C4.77819549 8.36090226 4.77819549 8.36090226 4 11 C0.32648984 15.41243461 -4.05507205 18.07664777 -8.9375 20.9375 C-10.55323084 21.90433491 -12.16776077 22.87317882 -13.78125 23.84375 C-14.63074219 24.35421875 -15.48023438 24.8646875 -16.35546875 25.390625 C-20.9257534 28.17195037 -25.43034781 31.05537816 -29.9375 33.9375 C-31.80727483 35.13153678 -33.67706644 36.32554729 -35.546875 37.51953125 C-36.46017578 38.10299316 -37.37347656 38.68645508 -38.31445312 39.28759766 C-43.19791059 42.40146772 -48.0957847 45.49246875 -52.99633789 48.5793457 C-57.08304462 51.15415711 -61.16201097 53.74017753 -65.23046875 56.34375 C-66.52174683 57.16721924 -66.52174683 57.16721924 -67.83911133 58.00732422 C-69.48563572 59.05766316 -71.13013026 60.11119345 -72.7722168 61.16845703 C-76.42297933 63.49249738 -79.87252403 65.60224917 -84 67 C-84.98558449 65.42065361 -85.96322541 63.83634827 -86.9375 62.25 C-87.48277344 61.36828125 -88.02804687 60.4865625 -88.58984375 59.578125 C-89.84201212 57.28884211 -90.4378083 55.51003433 -91 53 C-76.75 44 -62.5 35 -48.25 26 C-47.46536377 25.50443604 -46.68072754 25.00887207 -45.87231445 24.49829102 C-44.29794843 23.50396311 -42.72356706 22.5096595 -41.14916992 21.51538086 C-37.05350691 18.92880267 -32.95815658 16.34173129 -28.86328125 13.75390625 C-27.59484375 12.95243164 -27.59484375 12.95243164 -26.30078125 12.13476562 C-24.69781651 11.12190329 -23.09494467 10.10889389 -21.4921875 9.09570312 C-20.03628533 8.17584929 -18.57913501 7.2579673 -17.12060547 6.34228516 C-15.67444464 5.42690498 -14.23621202 4.49890751 -12.80517578 3.56005859 C-11.75499268 2.8787085 -11.75499268 2.8787085 -10.68359375 2.18359375 C-10.06411865 1.7755249 -9.44464355 1.36745605 -8.80639648 0.94702148 C-5.77376602 -0.64286547 -3.31443301 -0.50991277 0 0 Z " fill="#FF0D39" transform="translate(395,163)"/>
<path d="M0 0 C3.20423605 0.94462906 6.27514619 2.1974485 9.375 3.4375 C23.30430837 8.84273398 37.39478746 13.77615605 51.49383545 18.7182312 C64.424429 23.2519465 77.26855435 27.93183218 90 33 C88.50734064 38.08861147 87.03286888 43.09459901 85 48 C67.1358671 42.21901265 49.47626661 35.92336724 31.84031677 29.48721313 C27.3492469 27.84957423 22.85262541 26.22883099 18.34918213 24.62553406 C15.57265786 23.63609431 12.79885032 22.6391842 10.02545166 21.64102173 C8.73135398 21.17721721 7.43608404 20.71666874 6.1395874 20.25961304 C4.35158447 19.62866518 2.56824981 18.98453518 0.78515625 18.33984375 C-0.21636475 17.98269287 -1.21788574 17.62554199 -2.24975586 17.25756836 C-5.31006557 15.85822035 -7.54547717 14.29879208 -10 12 C-11.125 8.5625 -11.125 8.5625 -11 5 C-7.72017153 0.32872915 -5.54970452 -0.56070493 0 0 Z " fill="#FF0D39" transform="translate(111,195)"/>
<path d="M0 0 C17.52683854 5.70903454 34.94836744 11.68877927 52.3125 17.875 C53.22545837 18.19896759 54.13841675 18.52293518 55.07904053 18.85671997 C57.71690134 19.7937103 60.35287141 20.73582834 62.98828125 21.6796875 C64.15398903 22.09333305 64.15398903 22.09333305 65.34324646 22.51533508 C79.67736212 27.67736212 79.67736212 27.67736212 83 31 C83.3397122 34.00887945 83.54965117 36.09715473 83 39 C80.9375 41.5625 80.9375 41.5625 78 43 C71.12367096 42.65664754 64.81161798 40.02929675 58.375 37.75 C57.13258545 37.3154248 55.8901709 36.88084961 54.61010742 36.43310547 C51.88607353 35.480211 49.16352911 34.5232017 46.44189453 33.56347656 C42.53457543 32.18645454 38.62359439 30.82012263 34.71160889 29.4564209 C31.39273211 28.29931281 28.07471132 27.13976476 24.75689697 25.97961426 C23.1427574 25.41527601 21.52846184 24.85138371 19.91400146 24.28796387 C11.53763712 21.36208245 3.19038947 18.42205541 -5 15 C-3.33333333 10 -1.66666667 5 0 0 Z " fill="#FF0C38" transform="translate(316,269)"/>
<path d="M0 0 C5.28 0 10.56 0 16 0 C16.06780602 9.56203956 16.12283351 19.12391915 16.15543652 28.68614483 C16.17108517 33.12638476 16.19230877 37.56645152 16.22631836 42.0065918 C16.25894044 46.29246025 16.27685904 50.57816224 16.28463173 54.86414528 C16.29017013 56.49840731 16.30098535 58.13266035 16.31719017 59.76685143 C16.33900272 62.05790186 16.34196539 64.34826654 16.34057617 66.6394043 C16.34723801 67.94290329 16.35389984 69.24640228 16.36076355 70.58940125 C15.94440663 74.5255705 14.8168705 77.1831295 12 80 C4.69565217 80.47124825 4.69565217 80.47124825 2.0625 78.6875 C-0.36175329 74.83721536 -0.12104126 71.29330088 -0.11352539 66.86645508 C-0.11367142 66.14425278 -0.11381744 65.42205048 -0.1139679 64.67796326 C-0.11327145 62.29178866 -0.1054916 59.90569221 -0.09765625 57.51953125 C-0.09579112 55.8647211 -0.09436766 54.20991039 -0.09336853 52.55509949 C-0.08955085 48.20018997 -0.07972695 43.84531382 -0.06866455 39.49041748 C-0.05843433 35.04635062 -0.05386745 30.60227837 -0.04882812 26.15820312 C-0.03810402 17.43878507 -0.02051327 8.71940053 0 0 Z " fill="#FF0E39" transform="translate(248,317)"/>
<path d="M0 0 C3.37676918 2.63181301 4.84065821 4.10622619 5.60127258 8.37263489 C5.59016953 9.65836899 5.57906647 10.94410309 5.56762695 12.26879883 C5.56835709 12.98153961 5.56908722 13.6942804 5.56983948 14.42861938 C5.56637046 16.7722118 5.52754707 19.11378842 5.48828125 21.45703125 C5.47895056 23.08655207 5.47183565 24.71608695 5.46684265 26.34562683 C5.44779269 30.62526479 5.39871017 34.90404824 5.34332275 39.18334961 C5.29208644 43.55375612 5.26931932 47.92430131 5.24414062 52.29492188 C5.19058829 60.86371624 5.10266979 69.43165323 5 78 C-0.28 78 -5.56 78 -11 78 C-11.04520936 68.82910718 -11.08189229 59.65828855 -11.10362434 50.48730946 C-11.11405535 46.22872078 -11.12820209 41.97021239 -11.15087891 37.71166992 C-11.17263163 33.60087483 -11.18457377 29.49015691 -11.18975449 25.3793087 C-11.19344588 23.81204705 -11.20065425 22.24478955 -11.21146011 20.67756081 C-11.22600742 18.48001652 -11.2279766 16.28278988 -11.22705078 14.08520508 C-11.231492 12.83500076 -11.23593323 11.58479645 -11.24050903 10.29670715 C-11.00271572 7.03722497 -10.54200496 4.86789179 -9 2 C-5.48175489 -0.34549674 -4.14224306 -0.57991403 0 0 Z " fill="#FF0D38" transform="translate(259,117)"/>
<path d="M0 0 C4.11276845 2.05638422 6.96711941 4.56464377 10.25 7.6875 C11.41725351 8.78201327 12.58521929 9.87576745 13.75390625 10.96875 C14.31480957 11.4946875 14.87571289 12.020625 15.45361328 12.5625 C17.93450823 14.8687061 20.49038307 17.08391658 23.05078125 19.30078125 C27.9783564 23.5963628 32.8031582 28.0105297 37.6484375 32.3984375 C43.02350044 37.26287907 43.02350044 37.26287907 48.5625 41.9375 C51.69402668 44.58725334 51.93239907 45.26990994 52.3125 49.375 C52 53 52 53 50.375 55.4375 C48 57 48 57 45.3125 57.6875 C36.26525477 55.80976986 28.86052526 46.25102232 22.29296875 40.078125 C19.23008817 37.20294425 16.10181481 34.41695125 12.921875 31.671875 C9.730302 28.89546597 6.6037813 26.04694386 3.46875 23.20703125 C0.56310003 20.60941695 -2.40719361 18.09443973 -5.40625 15.60546875 C-7 14 -7 14 -9 10 C-6.03 6.7 -3.06 3.4 0 0 Z " fill="#FF0C38" transform="translate(306,291)"/>
<path d="M0 0 C2.33364352 2.92903058 4.04960836 5.88568203 5.6875 9.25 C6.12449219 10.14203125 6.56148437 11.0340625 7.01171875 11.953125 C7.50091797 12.96632813 7.50091797 12.96632813 8 14 C-1.01925004 19.28036093 -10.17401806 24.29403708 -19.375 29.25 C-21.05021729 30.15322998 -21.05021729 30.15322998 -22.75927734 31.07470703 C-25.83430579 32.7265286 -28.91470561 34.36744513 -32 36 C-33.2219104 36.64980835 -33.2219104 36.64980835 -34.46850586 37.31274414 C-39.66124026 40.00752799 -39.66124026 40.00752799 -42.8125 39.9375 C-45.32604435 38.86026671 -46.47548302 38.28677547 -48 36 C-49 32.625 -49 32.625 -49 29 C-44.68619343 23.27087711 -38.04575902 20.5552926 -31.8125 17.3125 C-29.47734025 16.07781408 -27.14270771 14.84213055 -24.80859375 13.60546875 C-23.65858887 12.99880371 -22.50858398 12.39213867 -21.32373047 11.76708984 C-16.64147055 9.27772615 -12.00346553 6.71268749 -7.375 4.125 C-6.23961792 3.4913855 -6.23961792 3.4913855 -5.08129883 2.8449707 C-3.38664915 1.89822668 -1.69316468 0.94939725 0 0 Z " fill="#FF0D38" transform="translate(198,278)"/>
<path d="M0 0 C2.64942021 1.46939018 4.70120319 3.40603277 6.875 5.5 C8.09390936 6.60932982 9.31396699 7.71739922 10.53515625 8.82421875 C11.12441895 9.36868652 11.71368164 9.9131543 12.32080078 10.47412109 C14.57382324 12.52142996 16.92530858 14.42434704 19.3125 16.3125 C20.08980469 16.92738281 20.86710937 17.54226562 21.66796875 18.17578125 C25.438879 21.12555527 29.21205333 24.07211852 33 27 C31.50923566 30.2826932 29.61379679 32.93077441 27.375 35.75 C26.74335938 36.54921875 26.11171875 37.3484375 25.4609375 38.171875 C24.97882813 38.77515625 24.49671875 39.3784375 24 40 C19.8558484 38.29957416 16.75620382 35.3585023 13.4375 32.4375 C12.18835263 31.35188274 10.93834221 30.2672578 9.6875 29.18359375 C9.06746094 28.64589355 8.44742188 28.10819336 7.80859375 27.55419922 C2.73902875 23.19771289 -2.46105753 18.98889898 -7.72265625 14.8671875 C-10.0810912 12.93351356 -11.14431623 11.90932481 -12 9 C-11.81416141 5.96463635 -11.44051393 3.77737753 -9.9375 1.125 C-6.76538331 -0.71687421 -3.51653444 -0.62289918 0 0 Z " fill="#FF0E39" transform="translate(181,183)"/>
<path d="M0 0 C0.99 0.03287109 0.99 0.03287109 2 0.06640625 C2.66 0.06511719 3.32 0.06382813 4 0.0625 C7.0224643 0.91847133 8.09182369 2.12059934 10 4.62890625 C10.40986475 7.66753285 10.58485726 10.33665228 10.56640625 13.375 C10.57570412 14.64719139 10.57570412 14.64719139 10.58518982 15.94508362 C10.59228375 17.73624526 10.58912135 19.52747289 10.57641602 21.31860352 C10.56256214 24.05413697 10.59660859 26.78624047 10.63476562 29.52148438 C10.63571699 31.26432375 10.63385704 33.0071674 10.62890625 34.75 C10.64216446 35.56472275 10.65542267 36.3794455 10.66908264 37.21885681 C10.59922855 41.49668314 10.36827775 43.1566406 7.64819336 46.64477539 C5 48.62890625 5 48.62890625 2 49.25390625 C-2.11586469 48.39643444 -3.41583664 46.92530398 -6 43.62890625 C-6.70754962 40.74587839 -6.67855454 37.96115681 -6.62890625 35.00390625 C-6.63131821 34.17938965 -6.63373016 33.35487305 -6.63621521 32.50537109 C-6.63523846 30.76720353 -6.62188567 29.02900421 -6.59692383 27.29101562 C-6.5626039 24.63694129 -6.576274 21.98619711 -6.59570312 19.33203125 C-6.58880431 17.63930881 -6.5791316 15.94659492 -6.56640625 14.25390625 C-6.57136612 13.46419434 -6.57632599 12.67448242 -6.58143616 11.86083984 C-6.49779254 7.92977618 -6.25634871 6.03143105 -4.08959961 2.62915039 C-2 0.62890625 -2 0.62890625 0 0 Z " fill="#FF0D39" transform="translate(254,47.37109375)"/>
<path d="M0 0 C4.10877321 0.85599442 5.41574826 2.34044396 8 5.625 C8.47525207 8.62587739 8.65757869 11.04196565 8.59375 14.03125 C8.59379028 14.83357056 8.59383057 15.63589111 8.59387207 16.46252441 C8.58852641 18.15364443 8.57098422 19.8447646 8.54199219 21.53564453 C8.50012994 24.11698724 8.50092685 26.69571867 8.5078125 29.27734375 C8.49731904 30.92449721 8.48438008 32.57163728 8.46875 34.21875 C8.46854858 34.98658813 8.46834717 35.75442627 8.46813965 36.54553223 C8.36901692 41.05724744 7.80652434 44.04212988 5 47.625 C1.95016004 49.14991998 -0.6423369 48.86062548 -4 48.625 C-6.61593153 46.79384793 -6.96989455 45.71531634 -8 42.625 C-8.27689497 37.37380951 -8.31339221 32.12304115 -8.35009766 26.86523438 C-8.36666642 25.12518955 -8.39396889 23.38521305 -8.43212891 21.64550781 C-8.48696881 19.13050214 -8.5087786 16.61708593 -8.5234375 14.1015625 C-8.54610687 13.32745026 -8.56877625 12.55333801 -8.59213257 11.75576782 C-8.57635093 7.70959063 -8.18164113 5.85663687 -5.65478516 2.63427734 C-3 0.625 -3 0.625 0 0 Z " fill="#FF0E3A" transform="translate(256,414.375)"/>
<path d="M0 0 C2.51186837 2.37966477 3.74907033 4.11034027 4.6875 7.4375 C3.08995345 13.39199167 -4.06754974 16.74932755 -9.08984375 19.6484375 C-11.36736594 20.89982332 -13.65006849 22.14182083 -15.9375 23.375 C-17.07896484 24.01566406 -18.22042969 24.65632813 -19.39648438 25.31640625 C-30.13032287 31.13289412 -30.13032287 31.13289412 -37 30 C-39.73080856 27.61054251 -40.76900145 26.02666021 -41.5625 22.5 C-40.74303345 18.85792646 -38.75694514 17.47237388 -36 15 C-32.89379883 13.07128906 -32.89379883 13.07128906 -29.45703125 11.265625 C-28.84736008 10.94213074 -28.2376889 10.61863647 -27.60954285 10.28533936 C-25.68160637 9.26492061 -23.74729657 8.25733951 -21.8125 7.25 C-20.50281417 6.55942954 -19.19356484 5.86803058 -17.88476562 5.17578125 C-5.28144676 -1.47880509 -5.28144676 -1.47880509 0 0 Z " fill="#FF0D38" transform="translate(127,321)"/>
<path d="M0 0 C5.34124631 1.11993874 8.30226011 3.77974327 12.29589844 7.39941406 C14.11773172 9.02971262 15.98473456 10.60115227 17.8515625 12.1796875 C19.23639129 13.38831865 20.61920554 14.59926189 22 15.8125 C22.67611328 16.3811377 23.35222656 16.94977539 24.04882812 17.53564453 C28.61511048 21.66340389 28.61511048 21.66340389 29.35693359 24.94335938 C29.43442359 28.3222299 29.10099364 30.46481747 27.25 33.3125 C24.09901061 35.30259857 22.5715739 35.29831019 18.875 34.8125 C16.40854766 33.09336795 14.36771806 31.46345302 12.1875 29.4375 C11.58462158 28.89456299 10.98174316 28.35162598 10.3605957 27.79223633 C9.12516015 26.67791872 7.89458854 25.55818477 6.66894531 24.43310547 C4.99659837 22.92234894 3.29093396 21.47156268 1.5546875 20.03515625 C0.56726563 19.19855469 -0.42015625 18.36195313 -1.4375 17.5 C-2.32050781 16.76136719 -3.20351563 16.02273438 -4.11328125 15.26171875 C-6.70452155 12.10694658 -6.99011397 9.84977831 -7.125 5.8125 C-5.22395446 2.08961915 -4.05105692 1.0532748 0 0 Z " fill="#FF0D38" transform="translate(370.125,350.1875)"/>
<path d="M0 0 C3.74048701 0.40126063 5.26994878 1.36903701 8.23046875 3.65234375 C9.63619141 4.73322266 9.63619141 4.73322266 11.0703125 5.8359375 C26.75527034 18.51444692 26.75527034 18.51444692 28.16796875 21.33984375 C28.52316778 25.17599332 28.71521469 27.48614009 26.60546875 30.77734375 C23.20372511 32.95794865 21.16498778 32.78164147 17.16796875 32.33984375 C14.75067827 30.71361305 12.87710344 29.24744993 10.79296875 27.27734375 C9.66544308 26.26408662 8.53653055 25.25237066 7.40625 24.2421875 C6.8592041 23.7457373 6.3121582 23.24928711 5.74853516 22.73779297 C2.92633397 20.24166631 -0.10165684 18.02101214 -3.125 15.77734375 C-5.73893836 13.5761325 -6.76561522 11.84903328 -7.20703125 8.46484375 C-6.63513103 3.69900857 -5.00552213 0.60066266 0 0 Z " fill="#FF0D39" transform="translate(135.83203125,148.66015625)"/>
<path d="M0 0 C0.66 0.33 1.32 0.66 2 1 C-2.95 5.95 -7.9 10.9 -13 16 C-13 11.08924079 -9.30469813 8.39044878 -6 5 C-4.05397986 3.23549584 -2.07285289 1.6178364 0 0 Z " fill="#FF4B6B" transform="translate(199,17)"/>
</svg>
