<?xml version="1.0" encoding="utf-8"?>
<!-- Generator: Adobe Illustrator 27.5.0, SVG Export Plug-In . SVG Version: 6.00 Build 0)  -->
<svg version="1.1" xmlns="http://www.w3.org/2000/svg" xmlns:xlink="http://www.w3.org/1999/xlink" x="0px" y="0px"
	 viewBox="10 150 400 100">
     
<g>
			<g>
				<g>
					<g>
						<path d="M31.958,213.281c14.771-1.372,28.367-8.525,41.816-14.238c15.066-6.399,30.688-9.137,47.068-7.299
							c8.764,0.983,17.397,3.359,25.221,7.471c7.77,4.083,14.543,9.746,21.598,14.903c11.353,8.299,26.837,17.226,41.336,11.894
							c1.348-0.495,0.831-2.463-0.596-2.163c-19.08,4.004-33.45-7.537-47.924-18.166c-12.736-9.352-26.292-15.227-42.175-16.377
							c-14.741-1.067-28.768,1.319-42.328,7.042c-14.589,6.157-28.51,12.783-44.171,15.787
							C31.163,212.256,31.3,213.342,31.958,213.281L31.958,213.281z"/>
					</g>
				</g>
				<g>
					<g>
						<path d="M133.167,210.619c7.668-0.757,15.557-0.613,23.116,0.933c7.069,1.446,13.042,4.508,19.445,7.69
							c0.893,0.444,2.022-0.764,1.141-1.478c-12.266-9.932-28.874-10.08-43.701-8.412
							C132.369,209.441,132.35,210.699,133.167,210.619L133.167,210.619z"/>
					</g>
				</g>
				<g>
					<g>
						<path d="M47.504,192.594c15.109,5.297,31.21,5.418,46.343-0.257c0.9-0.338,0.559-1.649-0.4-1.45
							c-8.805,1.826-17.189,4.271-26.286,4.178c-6.661-0.068-13.055-1.486-19.377-3.487
							C47.132,191.371,46.869,192.371,47.504,192.594L47.504,192.594z"/>
					</g>
				</g>
				<g>
					<g>
						<path d="M104.942,180.822c4.096,2.944,8.513,4.898,13.27,6.506c6.478,2.191,12.667,4.662,18.922,7.435
							c0.713,0.316,1.288-0.612,0.619-1.06c-9.885-6.621-22.488-7.107-32.363-13.648
							C104.908,179.736,104.485,180.494,104.942,180.822L104.942,180.822z"/>
					</g>
				</g>
				<g>
					<g>
						<path d="M115.664,180.521c3.074,4.643,7.429,8.189,12.784,9.883c0.541,0.171,0.924-0.686,0.393-0.932
							c-4.937-2.287-9.117-4.972-12.426-9.391C116.088,179.645,115.348,180.045,115.664,180.521L115.664,180.521z"/>
					</g>
				</g>
				<g>
					<g>
						<path d="M101.753,185.857c5.139,2.643,13.151,2.501,18.735,1.844c0.656-0.077,0.697-1.054,0-1.055
							c-5.688-0.007-13.067,1.129-18.325-1.491C101.697,184.923,101.286,185.617,101.753,185.857L101.753,185.857z"/>
					</g>
				</g>
				<path d="M103.566,185.313c0,1.199-0.907,1.752-1.875,1.752c-0.968,0-2.005-0.788-2.09-1.752
					c-0.108-1.214,1.122-1.752,2.09-1.752C102.659,183.561,103.566,184.346,103.566,185.313z"/>
				<path d="M117.38,181.375c-0.723,0.7-1.759,0.528-2.323-0.056c-0.565-0.584-0.694-1.67-0.162-2.284
					c0.67-0.773,1.712-0.345,2.277,0.239C117.736,179.858,117.964,180.811,117.38,181.375z"/>
				<path d="M56.984,191.397c-0.472,0.889-1.51,1.045-2.227,0.664c-0.717-0.381-1.176-1.374-0.859-2.122
					c0.399-0.942,1.522-0.857,2.24-0.476C56.854,189.845,57.365,190.68,56.984,191.397z"/>
				<path d="M140.703,205.236c0.003,1.126-0.885,1.403-1.695,1.467c-0.81,0.064-1.729-0.528-1.865-1.328
					c-0.17-1.009,0.824-1.54,1.634-1.604C139.588,203.707,140.701,204.173,140.703,205.236z"/>
				<path d="M107.303,181.112c-0.421,1.241-1.555,1.495-2.557,1.155c-1.002-0.34-1.799-1.52-1.548-2.548
					c0.315-1.295,1.778-1.419,2.779-1.079C106.98,178.979,107.643,180.11,107.303,181.112z"/>
				<path d="M49.109,192.547c-0.421,1.241-1.555,1.495-2.557,1.155c-1.002-0.34-1.798-1.52-1.548-2.548
					c0.315-1.295,1.778-1.419,2.779-1.079C48.785,190.415,49.449,191.545,49.109,192.547z"/>
				<path d="M135.464,209.353c0.48,1.22-0.222,2.146-1.207,2.533c-0.984,0.387-2.355,0-2.827-0.946
					c-0.595-1.192,0.441-2.232,1.426-2.619C133.84,207.933,135.077,208.368,135.464,209.353z"/>
				<path d="M175.945,191.213c-1.203,0.998-2.868,0.41-3.674-0.561c-0.806-0.971-0.878-2.668,0.018-3.557
					c1.129-1.119,2.693-0.332,3.499,0.639C176.594,188.706,176.917,190.407,175.945,191.213z"/>
				<g>
					<g>
						<path d="M139.225,205.818c6.763-0.201,12.527,3.123,18.761,5.193c0.759,0.252,1.04-0.896,0.325-1.178
							c-6.174-2.433-12.257-5.769-19.086-4.972C138.631,204.931,138.595,205.837,139.225,205.818L139.225,205.818z"/>
					</g>
				</g>
				<g>
					<g>
						<path d="M101.066,193.541c-8.85-2.57-17.133,3.479-24.528,7.442c-0.567,0.304-0.416,1.176,0.176,1.343
							c8.053,2.269,18.995,2.177,24.129-5.528c0.359-0.538-0.457-1.165-0.896-0.691c-5.939,6.416-14.784,6.958-22.842,4.802
							c0.059,0.448,0.117,0.895,0.175,1.343c7.168-3.965,14.849-9.511,23.511-7.711
							C101.439,194.676,101.712,193.729,101.066,193.541L101.066,193.541z"/>
					</g>
				</g>
				<g>
					<g>
						<path d="M48.239,208.499c-8.317-3.984-17.435,0.57-25.392,3.286c-0.542,0.185-0.79,1.055-0.175,1.343
							c7.585,3.546,18.369,5.315,24.735-1.437c0.422-0.448-0.157-1.307-0.691-0.896c-6.916,5.317-15.687,4.502-23.302,1.064
							c-0.059,0.448-0.117,0.895-0.176,1.343c7.768-2.765,16.304-6.966,24.602-3.756C48.384,209.657,48.768,208.752,48.239,208.499
							L48.239,208.499z"/>
					</g>
				</g>
				<g>
					<g>
						<path d="M84.126,200.687c10.28-0.751,18.817-8.61,29.152-9.753c0.627-0.069,0.655-1.041,0-1.003
							c-10.501,0.622-18.902,8.553-29.152,9.84C83.557,199.842,83.527,200.73,84.126,200.687L84.126,200.687z"/>
					</g>
				</g>
				<g>
					<g>
						<path d="M148.639,191.35c-3.822-8.273-13.158-9.761-21.009-12.369c-0.638-0.212-1.105,0.541-0.826,1.074
							c3.87,7.393,11.509,15.3,20.613,13.685c0.64-0.114,0.481-1.129-0.152-1.121c-8.732,0.12-15.238-5.98-19.199-13.302
							c-0.275,0.358-0.55,0.716-0.826,1.074c7.661,2.443,16.237,3.91,20.503,11.483C148.077,192.464,148.915,191.945,148.639,191.35
							L148.639,191.35z"/>
					</g>
				</g>
				<g>
					<g>
						<path d="M133.084,184.293c2.77,2.608,6.252,4.203,9.476,6.16c5.368,3.258,9.677,7.199,12.155,13.089
							c0.243,0.577,1.192,0.352,0.967-0.266c-1.764-4.845-4.96-8.575-9.108-11.58c-4.08-2.957-8.991-4.796-12.842-8.05
							C133.288,183.27,132.649,183.883,133.084,184.293L133.084,184.293z"/>
					</g>
				</g>
				<g>
					<g>
						<path d="M88.802,187.109c-3.977-1.953-9.329,0.593-13.171,1.897c-0.53,0.18-0.79,1.055-0.174,1.33
							c3.954,1.767,11.023,2.878,14.13-0.983c0.372-0.463-0.109-1.29-0.691-0.896c-3.745,2.531-8.809,2.247-12.877,0.549
							c0,0.468,0,0.936,0,1.404c3.569-1.282,8.588-3.568,12.384-2.353C88.954,188.234,89.334,187.37,88.802,187.109L88.802,187.109z
							"/>
					</g>
				</g>
				<g>
					<g>
						<path d="M81.346,189.721c1.88,0.196,3.689-0.192,5.557-0.346c3.05-0.252,5.716,0.201,8.419,1.709
							c0.569,0.317,1.039-0.509,0.506-0.866c-4.698-3.149-9.302-1.444-14.483-1.413C80.745,188.808,80.771,189.661,81.346,189.721
							L81.346,189.721z"/>
					</g>
				</g>
				<g>
					<g>
						<path d="M169.78,207.213c-1.024-4.229-6.652-6.707-10.064-8.718c-0.541-0.319-1.248,0.21-1.069,0.822
							c1.206,4.122,5.092,10.225,9.997,10.001c0.623-0.028,0.798-0.957,0.152-1.121c-4.266-1.079-7.441-5.19-8.745-9.268
							c-0.356,0.274-0.713,0.548-1.069,0.822c3.24,1.823,8.319,4.092,9.798,7.737C169.024,208.092,169.941,207.879,169.78,207.213
							L169.78,207.213z"/>
					</g>
				</g>
				<g>
					<g>
						<path d="M162.896,203.246c1.082,1.61,2.618,2.759,3.989,4.105c2.174,2.134,3.572,4.475,4.162,7.482
							c0.107,0.548,1.04,0.432,0.985-0.133c-0.565-5.767-5.044-8.019-8.416-12.009C163.281,202.296,162.606,202.815,162.896,203.246
							L162.896,203.246z"/>
					</g>
				</g>
				<g>
					<g>
						<path d="M64.04,204.104c-4.224,1.084-6.614,6.729-8.583,10.174c-0.306,0.536,0.203,1.259,0.822,1.069
							c4.106-1.262,10.165-5.224,9.875-10.127c-0.036-0.615-0.964-0.807-1.121-0.152c-1.021,4.28-5.08,7.515-9.141,8.875
							c0.274,0.356,0.548,0.713,0.822,1.069c1.773-3.253,3.992-8.387,7.602-9.908C64.911,204.854,64.709,203.933,64.04,204.104
							L64.04,204.104z"/>
					</g>
				</g>
				<g>
					<g>
						<path d="M60.155,211.046c1.642-1.174,2.566-3.009,3.632-4.672c1.793-2.797,3.818-5.152,6.991-6.367
							c0.59-0.226,0.369-1.141-0.267-0.967c-2.739,0.75-4.792,2.626-6.449,4.867c-1.503,2.034-2.55,4.734-4.463,6.421
							C59.215,210.666,59.729,211.351,60.155,211.046L60.155,211.046z"/>
					</g>
				</g>
				<g>
					<g>
						<path d="M167.139,216.02c-8.23-3.986-16.271,0.569-24.092,3.536c-0.511,0.194-0.814,1.061-0.175,1.337
							c7.62,3.286,18.422,4.92,24.536-2.06c0.49-0.559-0.243-1.27-0.807-0.807c-6.767,5.563-15.495,4.716-23.166,1.53
							c0,0.47,0,0.941,0,1.411c7.558-2.962,15.123-7.185,23.303-3.998C167.284,217.18,167.666,216.275,167.139,216.02
							L167.139,216.02z"/>
					</g>
				</g>
				<g>
					<g>
						<path d="M150.579,220.289c3.488,0.213,6.843-0.551,10.276-1.05c6.548-0.952,12.638-0.712,18.64,2.42
							c0.57,0.298,1.068-0.542,0.506-0.866c-9.89-5.704-18.979-1.349-29.421-1.421C149.985,219.369,149.995,220.254,150.579,220.289
							L150.579,220.289z"/>
					</g>
				</g>
				<g>
					<g>
						<path d="M55.224,191.133c4.961,2.725,10.796,4.593,16.482,4.707c0.664,0.013,0.646-0.968,0-1.02
							c-5.486-0.443-11.102-1.99-16.005-4.503C55.162,190.041,54.688,190.838,55.224,191.133L55.224,191.133z"/>
					</g>
				</g>
				<g>
					<g>
						<path d="M46.465,202.197c6.719,2.072,13.992,1.855,20.574-0.639c0.747-0.283,0.441-1.485-0.335-1.217
							c-6.564,2.264-13.245,2.581-20.007,1.017C46.151,201.231,45.928,202.031,46.465,202.197L46.465,202.197z"/>
					</g>
				</g>
				<g>
					<g>
						<path d="M122.427,198.09c6.576-2.207,13.249-2.561,19.992-0.941c0.788,0.189,1.121-1.003,0.336-1.217
							c-6.799-1.851-14.06-1.392-20.559,1.319C121.696,197.459,121.882,198.273,122.427,198.09L122.427,198.09z"/>
					</g>
				</g>
				<g>
					<g>
						<path d="M156.081,204.01c-10.211-8.127-27.894-5.425-38.88-0.702c-9.641,4.145-18.312,7.659-29.024,7.326
							c-4.288-0.133-8.859-0.642-12.921-2.136c-0.763-0.281-1.093,0.938-0.336,1.217c10.033,3.69,22.146,2.76,32.083-0.596
							c9.321-3.147,17.103-7.931,27.194-8.711c7.007-0.542,15.556-0.167,21.357,4.285
							C155.942,204.991,156.467,204.318,156.081,204.01L156.081,204.01z"/>
					</g>
				</g>
				<g>
					<g>
						<path d="M144.634,183.045c13.628,4.339,24.903,11.642,33.329,23.45c6.062,8.496,11.98,19.889,23.725,20.592
							c0.954,0.057,1.179-1.494,0.228-1.683c-13.712-2.727-18.35-16.484-26.952-25.797c-8.48-9.18-18.207-14.276-29.977-17.844
							C144.166,181.514,143.822,182.787,144.634,183.045L144.634,183.045z"/>
					</g>
				</g>
				<g>
					<g>
						<path d="M174.045,190.012c6.901,8.247,8.236,20.477,16.505,27.614c0.825,0.712,1.889-0.362,1.19-1.19
							c-7.021-8.315-9.433-19.338-16.739-27.381C174.409,188.404,173.494,189.354,174.045,190.012L174.045,190.012z"/>
					</g>
				</g>
				<g>
					<g>
						<path d="M171.031,196.122c-4.132-4.601-9.074-10.447-10.282-16.618c-0.411,0.316-0.821,0.631-1.232,0.947
							c3.811,1.752,6.435,5.261,8.051,9.016c0.292,0.68,1.394,0.194,1.187-0.5c-1.254-4.195-4.351-8.104-8.391-9.964
							c-0.679-0.313-1.378,0.199-1.232,0.947c1.293,6.63,6.392,12.369,11.036,17.036
							C170.725,197.547,171.553,196.704,171.031,196.122L171.031,196.122z"/>
					</g>
				</g>
				<g>
					<g>
						<path d="M112.629,205.386c-6.118,1.094-13.617,2.16-19.533,0.021c0.067,0.511,0.133,1.022,0.2,1.533
							c3.445-2.267,7.725-2.684,11.713-2.127c0.8,0.112,1.181-1.044,0.345-1.252c-4.295-1.073-9.139-0.543-12.905,1.931
							c-0.628,0.412-0.483,1.285,0.2,1.533c6.402,2.319,13.819,1.044,20.303-0.461C113.728,206.384,113.392,205.249,112.629,205.386
							L112.629,205.386z"/>
					</g>
				</g>
				<g>
					<g>
						<path d="M185.174,195.404c0.289,4.542-1.39,9.818,0.396,14.159c0.326,0.791,1.48,0.514,1.304-0.359
							c-0.914-4.524-0.013-9.231-0.471-13.8C186.326,194.631,185.123,194.605,185.174,195.404L185.174,195.404z"/>
					</g>
				</g>
			</g>
			<g>
				<g>
					<g>
						<path d="M389.788,212.134c-15.658-3.003-29.582-9.63-44.171-15.787c-13.564-5.724-27.582-8.109-42.328-7.042
							c-15.876,1.149-29.445,7.029-42.175,16.377c-14.477,10.631-28.837,22.172-47.925,18.166c-1.425-0.299-1.946,1.667-0.596,2.163
							c14.499,5.331,29.979-3.59,41.336-11.894c7.056-5.159,13.831-10.809,21.598-14.903c7.817-4.12,16.463-6.488,25.221-7.471
							c16.375-1.837,32.007,0.892,47.068,7.299c13.442,5.718,27.05,12.866,41.816,14.238
							C390.284,213.341,390.434,212.258,389.788,212.134L389.788,212.134z"/>
					</g>
				</g>
				<g>
					<g>
						<path d="M288.424,209.351c-14.833-1.669-31.429-1.524-43.702,8.412c-0.874,0.707,0.239,1.926,1.141,1.478
							c6.402-3.181,12.371-6.243,19.445-7.69c7.557-1.545,15.452-1.689,23.116-0.933
							C289.239,210.699,289.224,209.441,288.424,209.351L288.424,209.351z"/>
					</g>
				</g>
				<g>
					<g>
						<path d="M373.807,191.577c-6.323,2.001-12.715,3.418-19.377,3.487c-9.095,0.093-17.482-2.352-26.286-4.178
							c-0.957-0.199-1.301,1.112-0.4,1.45c15.132,5.675,31.234,5.554,46.343,0.257C374.721,192.372,374.46,191.37,373.807,191.577
							L373.807,191.577z"/>
					</g>
				</g>
				<g>
					<g>
						<path d="M316.201,180.056c-9.874,6.541-22.477,7.026-32.363,13.648c-0.668,0.447-0.095,1.376,0.619,1.06
							c6.252-2.772,12.444-5.248,18.922-7.435c4.76-1.607,9.17-3.56,13.269-6.506C317.105,180.494,316.684,179.736,316.201,180.056
							L316.201,180.056z"/>
					</g>
				</g>
				<g>
					<g>
						<path d="M305.176,180.082c-3.307,4.416-7.49,7.104-12.426,9.391c-0.525,0.243-0.154,1.105,0.393,0.932
							c5.357-1.695,9.71-5.24,12.784-9.883C306.242,180.045,305.503,179.645,305.176,180.082L305.176,180.082z"/>
					</g>
				</g>
				<g>
					<g>
						<path d="M319.428,185.155c-5.275,2.629-12.614,1.484-18.325,1.491c-0.696,0.001-0.657,0.977,0,1.055
							c5.6,0.658,13.573,0.811,18.735-1.844C320.305,185.617,319.894,184.923,319.428,185.155L319.428,185.155z"/>
					</g>
				</g>
				<path d="M318.024,185.313c0,1.199,0.907,1.752,1.875,1.752s2.004-0.788,2.09-1.752c0.107-1.214-1.122-1.752-2.09-1.752
					S318.024,184.346,318.024,185.313z"/>
				<path d="M304.21,181.375c0.723,0.7,1.759,0.528,2.323-0.056c0.565-0.584,0.694-1.67,0.162-2.284
					c-0.67-0.773-1.712-0.345-2.277,0.239C303.855,179.858,303.626,180.811,304.21,181.375z"/>
				<path d="M364.607,191.397c0.472,0.889,1.51,1.045,2.227,0.664c0.717-0.381,1.176-1.374,0.859-2.122
					c-0.398-0.942-1.522-0.857-2.239-0.476C364.737,189.845,364.226,190.68,364.607,191.397z"/>
				<path d="M280.888,205.236c-0.003,1.126,0.885,1.403,1.695,1.467c0.81,0.064,1.73-0.528,1.865-1.328
					c0.17-1.009-0.824-1.54-1.634-1.604C282.003,203.707,280.89,204.173,280.888,205.236z"/>
				<path d="M314.287,181.112c0.421,1.241,1.555,1.495,2.557,1.155c1.002-0.34,1.798-1.52,1.548-2.548
					c-0.315-1.295-1.778-1.419-2.779-1.079C314.611,178.979,313.947,180.11,314.287,181.112z"/>
				<path d="M372.482,192.547c0.421,1.241,1.555,1.495,2.557,1.155c1.002-0.34,1.798-1.52,1.548-2.548
					c-0.315-1.295-1.778-1.419-2.779-1.079C372.805,190.415,372.142,191.545,372.482,192.547z"/>
				<path d="M286.126,209.353c-0.48,1.22,0.222,2.146,1.207,2.533c0.984,0.387,2.355,0,2.827-0.946
					c0.595-1.192-0.441-2.232-1.426-2.619C287.75,207.933,286.513,208.368,286.126,209.353z"/>
				<path d="M245.645,191.213c1.203,0.998,2.869,0.41,3.674-0.561c0.806-0.971,0.878-2.668-0.018-3.557
					c-1.129-1.119-2.693-0.332-3.499,0.639C244.997,188.706,244.674,190.407,245.645,191.213z"/>
				<g>
					<g>
						<path d="M282.366,204.862c-6.829-0.797-12.912,2.539-19.086,4.972c-0.714,0.282-0.435,1.431,0.325,1.178
							c6.232-2.07,11.998-5.395,18.761-5.193C282.995,205.837,282.961,204.931,282.366,204.862L282.366,204.862z"/>
					</g>
				</g>
				<g>
					<g>
						<path d="M320.801,194.541c8.654-1.798,16.349,3.749,23.511,7.711c0.059-0.448,0.117-0.895,0.176-1.343
							c-8.067,2.158-16.897,1.62-22.842-4.802c-0.435-0.469-1.259,0.147-0.896,0.691c5.133,7.703,16.078,7.797,24.129,5.528
							c0.59-0.166,0.743-1.039,0.176-1.343c-7.398-3.965-15.673-10.014-24.528-7.442C319.88,193.729,320.15,194.676,320.801,194.541
							L320.801,194.541z"/>
					</g>
				</g>
				<g>
					<g>
						<path d="M373.751,209.446c8.294-3.21,16.835,0.991,24.602,3.756c-0.059-0.448-0.117-0.895-0.176-1.343
							c-7.628,3.445-16.378,4.259-23.302-1.064c-0.529-0.407-1.118,0.443-0.691,0.896c6.363,6.749,17.15,4.983,24.735,1.437
							c0.616-0.288,0.37-1.157-0.175-1.343c-7.961-2.717-17.074-7.271-25.392-3.286C372.828,208.749,373.201,209.66,373.751,209.446
							L373.751,209.446z"/>
					</g>
				</g>
				<g>
					<g>
						<path d="M337.465,199.77c-10.25-1.286-18.652-9.218-29.152-9.84c-0.654-0.039-0.628,0.933,0,1.003
							c10.335,1.143,18.871,9.002,29.152,9.753C338.063,200.73,338.035,199.842,337.465,199.77L337.465,199.77z"/>
					</g>
				</g>
				<g>
					<g>
						<path d="M273.847,191.873c4.259-7.563,12.857-9.045,20.503-11.483c-0.275-0.358-0.55-0.716-0.826-1.074
							c-3.96,7.321-10.468,13.422-19.199,13.302c-0.626-0.009-0.799,1.006-0.152,1.121c9.103,1.615,16.744-6.294,20.613-13.685
							c0.278-0.531-0.188-1.286-0.826-1.074c-7.856,2.609-17.187,4.096-21.009,12.369
							C272.677,191.945,273.514,192.465,273.847,191.873L273.847,191.873z"/>
					</g>
				</g>
				<g>
					<g>
						<path d="M287.859,183.645c-3.852,3.254-8.762,5.094-12.842,8.05c-4.147,3.005-7.344,6.736-9.108,11.58
							c-0.225,0.618,0.724,0.845,0.967,0.266c2.478-5.887,6.788-9.831,12.155-13.089c3.223-1.957,6.706-3.551,9.476-6.16
							C288.941,183.883,288.303,183.27,287.859,183.645L287.859,183.645z"/>
					</g>
				</g>
				<g>
					<g>
						<path d="M333.189,188.057c3.796-1.215,8.815,1.071,12.384,2.353c0-0.468,0-0.936,0-1.404
							c-4.068,1.698-9.134,1.981-12.877-0.549c-0.578-0.391-1.067,0.429-0.691,0.896c3.107,3.861,10.175,2.75,14.13,0.983
							c0.617-0.276,0.36-1.149-0.174-1.33c-3.843-1.305-9.193-3.85-13.171-1.897C332.263,187.367,332.631,188.236,333.189,188.057
							L333.189,188.057z"/>
					</g>
				</g>
				<g>
					<g>
						<path d="M340.245,188.804c-5.186-0.031-9.775-1.742-14.483,1.413c-0.532,0.357-0.063,1.183,0.506,0.866
							c2.703-1.508,5.37-1.961,8.419-1.709c1.869,0.154,3.677,0.542,5.557,0.346C340.818,189.661,340.847,188.808,340.245,188.804
							L340.245,188.804z"/>
					</g>
				</g>
				<g>
					<g>
						<path d="M252.811,207.488c1.479-3.644,6.556-5.912,9.798-7.737c-0.356-0.274-0.713-0.548-1.069-0.822
							c-1.304,4.077-4.48,8.189-8.745,9.268c-0.641,0.162-0.478,1.092,0.152,1.121c4.905,0.224,8.792-5.879,9.997-10.001
							c0.179-0.611-0.527-1.141-1.069-0.822c-3.413,2.012-9.039,4.486-10.064,8.718C251.65,207.878,252.566,208.093,252.811,207.488
							L252.811,207.488z"/>
					</g>
				</g>
				<g>
					<g>
						<path d="M257.976,202.691c-3.372,3.99-7.851,6.242-8.416,12.009c-0.055,0.559,0.876,0.687,0.985,0.133
							c0.591-3.015,1.982-5.342,4.162-7.482c1.37-1.345,2.908-2.496,3.989-4.105C258.982,202.819,258.313,202.292,257.976,202.691
							L257.976,202.691z"/>
					</g>
				</g>
				<g>
					<g>
						<path d="M357.275,205.105c3.611,1.522,5.826,6.651,7.602,9.908c0.274-0.356,0.548-0.713,0.822-1.069
							c-4.061-1.36-8.121-4.595-9.141-8.875c-0.155-0.65-1.084-0.469-1.121,0.152c-0.29,4.903,5.769,8.865,9.875,10.127
							c0.618,0.19,1.129-0.531,0.822-1.069c-1.969-3.447-4.356-9.09-8.583-10.174C356.883,203.933,356.679,204.853,357.275,205.105
							L357.275,205.105z"/>
					</g>
				</g>
				<g>
					<g>
						<path d="M361.991,210.327c-1.914-1.688-2.959-4.385-4.463-6.421c-1.657-2.242-3.709-4.116-6.449-4.867
							c-0.634-0.174-0.858,0.74-0.267,0.967c3.174,1.216,5.199,3.57,6.991,6.367c1.066,1.663,1.989,3.498,3.632,4.672
							C361.857,211.348,362.38,210.67,361.991,210.327L361.991,210.327z"/>
					</g>
				</g>
				<g>
					<g>
						<path d="M254.852,216.968c8.177-3.185,15.743,1.035,23.303,3.998c0-0.47,0-0.941,0-1.411
							c-7.669,3.185-16.399,4.033-23.166-1.53c-0.564-0.463-1.297,0.247-0.807,0.807c6.113,6.978,16.919,5.345,24.536,2.06
							c0.641-0.276,0.34-1.142-0.175-1.337c-7.826-2.968-15.859-7.522-24.092-3.536C253.93,216.272,254.301,217.182,254.852,216.968
							L254.852,216.968z"/>
					</g>
				</g>
				<g>
					<g>
						<path d="M271.012,219.373c-10.451,0.072-19.519-4.29-29.421,1.421c-0.561,0.324-0.064,1.164,0.506,0.866
							c6.02-3.142,12.079-3.377,18.64-2.42c3.431,0.5,6.79,1.262,10.276,1.05C271.595,220.254,271.607,219.369,271.012,219.373
							L271.012,219.373z"/>
					</g>
				</g>
				<g>
					<g>
						<path d="M365.89,190.317c-4.904,2.514-10.519,4.06-16.005,4.503c-0.645,0.052-0.665,1.033,0,1.02
							c5.686-0.114,11.522-1.982,16.482-4.707C366.902,190.839,366.429,190.04,365.89,190.317L365.89,190.317z"/>
					</g>
				</g>
				<g>
					<g>
						<path d="M374.895,201.357c-6.759,1.564-13.451,1.245-20.007-1.017c-0.775-0.267-1.084,0.933-0.335,1.217
							c6.583,2.494,13.855,2.71,20.574,0.639C375.662,202.031,375.441,201.231,374.895,201.357L374.895,201.357z"/>
					</g>
				</g>
				<g>
					<g>
						<path d="M299.395,197.251c-6.499-2.712-13.761-3.169-20.559-1.319c-0.785,0.214-0.454,1.407,0.335,1.217
							c6.738-1.618,13.426-1.262,19.992,0.941C299.707,198.272,299.896,197.46,299.395,197.251L299.395,197.251z"/>
					</g>
				</g>
				<g>
					<g>
						<path d="M266.037,204.693c5.625-4.318,13.813-4.75,20.622-4.331c4.839,0.298,9.673,1.255,14.241,2.892
							c4.689,1.681,8.958,4.267,13.688,5.864c9.939,3.356,22.048,4.287,32.083,0.596c0.756-0.278,0.429-1.498-0.336-1.217
							c-3.872,1.424-8.222,1.938-12.306,2.11c-10.932,0.459-19.799-3.069-29.639-7.3c-10.984-4.723-28.67-7.424-38.88,0.702
							C265.128,204.314,265.645,204.995,266.037,204.693L266.037,204.693z"/>
					</g>
				</g>
				<g>
					<g>
						<path d="M276.603,181.764c-11.766,3.568-21.496,8.664-29.976,17.844c-8.604,9.314-13.234,23.068-26.952,25.797
							c-0.942,0.187-0.737,1.74,0.228,1.683c11.741-0.702,17.664-12.098,23.725-20.592c8.43-11.814,19.697-19.11,33.329-23.45
							C277.768,182.787,277.427,181.514,276.603,181.764L276.603,181.764z"/>
					</g>
				</g>
				<g>
					<g>
						<path d="M246.59,189.056c-7.306,8.042-9.718,19.066-16.739,27.381c-0.698,0.827,0.365,1.902,1.19,1.19
							c8.268-7.137,9.605-19.368,16.505-27.614C248.097,189.354,247.182,188.404,246.59,189.056L246.59,189.056z"/>
					</g>
				</g>
				<g>
					<g>
						<path d="M251.424,196.986c4.645-4.667,9.743-10.407,11.036-17.036c0.147-0.751-0.555-1.259-1.232-0.947
							c-4.038,1.86-7.137,5.769-8.39,9.964c-0.205,0.687,0.891,1.188,1.187,0.5c1.615-3.755,4.24-7.264,8.051-9.016
							c-0.411-0.316-0.821-0.631-1.232-0.947c-1.208,6.172-6.15,12.017-10.282,16.618
							C250.038,196.704,250.865,197.548,251.424,196.986L251.424,196.986z"/>
					</g>
				</g>
				<g>
					<g>
						<path d="M308.637,206.564c6.485,1.505,13.901,2.78,20.303,0.461c0.685-0.248,0.826-1.122,0.2-1.533
							c-3.764-2.473-8.613-3.003-12.905-1.931c-0.834,0.208-0.456,1.364,0.345,1.252c3.992-0.557,8.266-0.141,11.713,2.127
							c0.067-0.511,0.133-1.022,0.2-1.533c-5.916,2.139-13.414,1.073-19.533-0.021C308.2,205.25,307.861,206.384,308.637,206.564
							L308.637,206.564z"/>
					</g>
				</g>
				<g>
					<g>
						<path d="M235.188,195.404c-0.458,4.568,0.443,9.275-0.471,13.8c-0.176,0.871,0.978,1.152,1.304,0.359
							c1.786-4.34,0.108-9.618,0.396-14.159C236.468,194.606,235.265,194.629,235.188,195.404L235.188,195.404z"/>
					</g>
				</g>
			</g>
		</g>
</svg>